# xmcd
#
# Track frame offsets:
# 150
# 16847
# 33438
# 45403
# 59610
# 77139
# 92359
# 107749
# 119910
# 138278
# 154867
# 168169
# 180031
# 194148
# 207692
# 221393
# 233887
# 250974
#
# Disc length: 3578 seconds
#
#
# Revision: 2
# Processed by: cddbd v1.5.1PL2 Copyright (c) Steve Scherf et al.
# Submitted via: FreeRIP 2.944 
#
DISCID=f60df812
DTITLE=Various Artist - Sertanejo bom de Dança
DYEAR=2002
DGENRE=Other
TTITLE0=Gino e Geno - Ela Chorou de Amor
TTITLE1=Não Fujo - Não Bebo, Não Fumo
TTITLE2=Rio Negro e Solimões - Sapateio, Sapateio
TTITLE3=Gina e Giovani - Peão não Chora
TTITLE4=Rick e Renner - Nóis Trupica Mas Não Cai
TTITLE5=Gino e Geno - O Gato Comeu
TTITLE6=Teodoro e Sampaio - Garrafão
TTITLE7=Gian e Giovani - Rabo de Saia
TTITLE8=D. Paulo e Paulino - Chic no Úrtimo
TTITLE9=Rick e Renner - Rodeio de Vaqueijada
TTITLE10=Gino e Geno - So Feio Mas Tô na Moda
TTITLE11=Gian e Giovani - O Trem é Bão
TTITLE12=Teodoro e Sampaio - Raimunda
TTITLE13=Rick e Renner - Vontade de Te Ver
TTITLE14=Teodoro e Sampaio - Vida de Cachorro
TTITLE15=Rio Negro e Solimões - Rodopio
TTITLE16=Rick e Renner - Simbora Bora
TTITLE17=Dallas Company - Clima de Rodeio
EXTD=
EXTT0=
EXTT1=
EXTT2=
EXTT3=
EXTT4=
EXTT5=
EXTT6=
EXTT7=
EXTT8=
EXTT9=
EXTT10=
EXTT11=
EXTT12=
EXTT13=
EXTT14=
EXTT15=
EXTT16=
EXTT17=
PLAYORDER=
